<svg width="354" height="243" viewBox="0 0 354 243" fill="none" xmlns="http://www.w3.org/2000/svg">
<path d="M321.49 185.125C323.752 206.614 303.583 220.469 293.215 224.71C265.266 229.91 246.561 226.332 234.902 220.469C223.313 249.875 193.548 242.146 180.114 234.606C143.922 250.441 123.563 231.779 117.908 220.469C54.5716 245.351 31.1974 206.331 27.4274 183.711C-16.7417 166.66 5.41088 127.54 21.7723 121.505C12.7242 88.7058 26.4849 66.3684 34.4962 59.2995C44.6753 41.2034 75.4954 42.3344 89.633 45.1619C86.24 21.4106 108.954 6.99024 120.736 2.74895C133.177 0.486926 146.655 1.80644 151.839 2.74895C165.411 3.87996 175.401 13.5878 178.7 18.3004C178.7 14.9073 185.298 10.289 188.597 8.40401C211.217 1.61794 232.895 5.57648 240.906 8.40401C257.871 12.9281 265.882 33.8518 267.767 43.7481C302.829 38.0931 323.847 60.242 329.973 72.0234C344.027 99.0498 337.976 111.774 334.214 122.919C353.442 128.574 353.536 151.666 351.18 162.504C347.786 178.339 329.973 184.182 321.49 185.125Z" fill="#FCA7A7"/>
<path d="M219.699 206.331C221.503 210.54 226.274 216.13 234.902 220.469M27.4274 183.711C-16.7417 166.66 5.41088 127.54 21.7723 121.505C12.7242 88.7059 26.4849 66.3684 34.4962 59.2995C44.6753 41.2033 75.4954 42.3344 89.633 45.1619C86.24 21.4106 108.954 6.99024 120.736 2.74895C133.177 0.486926 146.655 1.80644 151.839 2.74895C165.411 3.87996 175.401 13.5878 178.7 18.3004C178.7 14.9073 185.298 10.289 188.597 8.40401C211.217 1.61794 232.895 5.57648 240.906 8.40401C257.871 12.9281 265.882 33.8518 267.767 43.7481C302.829 38.0931 323.847 60.242 329.973 72.0234C344.027 99.0498 337.976 111.774 334.214 122.919C353.442 128.574 353.536 151.666 351.18 162.504C347.786 178.339 329.973 184.182 321.49 185.125C323.752 206.614 303.583 220.469 293.215 224.71C265.266 229.91 246.561 226.332 234.902 220.469M27.4274 183.711C31.1974 206.331 54.5716 245.351 117.908 220.469C123.563 231.779 143.922 250.441 180.114 234.606C193.548 242.146 223.313 249.875 234.902 220.469M27.4274 183.711C31.8546 175.742 33.2126 170.344 33.2126 170.344" stroke="black" stroke-width="3" stroke-linecap="round"/>
<path d="M88.4997 228L56.9997 104L19.9997 111.5L21.9997 121C6.83308 133.833 -13.3003 164.2 27.4997 183C28.8331 199.5 42.8997 231.6 88.4997 228Z" fill="#D96C8B" fill-opacity="0.26"/>
<path d="M48.9998 69L43.4998 50.5C27.8998 61.7 24.6664 72.1666 24.9998 76L48.9998 69Z" fill="#F398A0" fill-opacity="0.26"/>
<path d="M334.214 121.505C333.272 124.333 328.842 131.402 318.663 137.057" stroke="black" stroke-width="3" stroke-linecap="round"/>
<path d="M24.12 120.256C29.3038 118.122 42.2162 115.135 52.3953 120.256" stroke="black" stroke-width="3" stroke-linecap="round"/>
<path d="M185.769 224.71C184.826 226.595 182.376 230.931 180.114 233.193" stroke="black" stroke-width="3" stroke-linecap="round"/>
<path d="M112.253 202.09C116.023 202.561 122.432 206.614 117.908 219.055" stroke="black" stroke-width="3" stroke-linecap="round"/>
<path d="M124.977 200.676C123.563 201.619 120.453 204.352 119.322 207.745" stroke="black" stroke-width="3" stroke-linecap="round"/>
<path d="M105.184 57.8858C107.541 56.9433 112.819 55.6238 115.081 57.8858" stroke="black" stroke-width="3" stroke-linecap="round"/>
<path d="M177.286 15.4728C179.171 18.3003 182.941 25.3691 182.941 31.0242" stroke="black" stroke-width="3" stroke-linecap="round"/>
<path d="M327 75C220.6 31 82.4998 57.1666 27.9998 75.5C17.1998 78.8535 17.1664 100.231 19.9998 111.5C157.6 70.7 290.166 94.5 337 111.5C342.6 87.9 333 77.8333 327 75Z" fill="#4BB862" stroke="black" stroke-width="4"/>
<path d="M138.635 103.291V121.67" stroke="black" stroke-width="3" stroke-linecap="round"/>
<path d="M216.392 103.291V121.67" stroke="black" stroke-width="3" stroke-linecap="round"/>
<path d="M163.06 148.239C173.465 160.031 185.884 162.719 196.296 147.508" stroke="black" stroke-width="3" stroke-linecap="round"/>
<path d="M56.9997 102L48.4997 69L24.9997 77.5C16.5997 84.3 18.3331 102.667 20.4997 111L56.9997 102Z" fill="#31B04D" fill-opacity="0.26"/>
</svg>
