<svg width="282" height="82" viewBox="0 0 282 82" fill="none" xmlns="http://www.w3.org/2000/svg">
<path d="M14.1581 66.0992L7.85525 59.7964C6.95004 59.0068 5.77879 58.5903 4.57829 58.6312C3.37779 58.6721 2.23759 59.1673 1.38822 60.0167C0.538841 60.8661 0.0436484 62.0063 0.00275053 63.2068C-0.0381474 64.4073 0.3783 65.5785 1.1679 66.4837L7.47073 72.7866C8.37594 73.5762 9.54719 73.9926 10.7477 73.9517C11.9482 73.9108 13.0884 73.4156 13.9378 72.5662C14.7871 71.7169 15.2823 70.5767 15.3232 69.3762C15.3641 68.1757 14.9477 67.0044 14.1581 66.0992ZM5.19703 42.1669C4.31292 43.0551 3.81657 44.2573 3.81657 45.5105C3.81657 46.7638 4.31292 47.966 5.19703 48.8542L25.1003 68.7658C25.5273 69.2553 26.0503 69.6518 26.637 69.9307C27.2237 70.2097 27.8614 70.365 28.5106 70.3871C29.1599 70.4092 29.8067 70.2977 30.411 70.0593C31.0153 69.821 31.5641 69.461 32.0235 69.0016C32.4828 68.5423 32.8428 67.9935 33.0811 67.3892C33.3195 66.7849 33.431 66.138 33.4089 65.4888C33.3868 64.8396 33.2315 64.2019 32.9526 63.6152C32.6737 63.0285 32.2771 62.5054 31.7876 62.0784L11.8927 42.1669C11.0042 41.2802 9.80016 40.7822 8.54488 40.7822C7.28961 40.7822 6.08559 41.2802 5.19703 42.1669Z" fill="#FF8A3D"/>
<path d="M34.4521 32.8092L23.8126 43.4488C23.1597 44.1016 23.1597 45.1602 23.8126 45.8131L28.1452 50.1457C28.7981 50.7986 29.8567 50.7986 30.5095 50.1457L41.1491 39.5062C41.8019 38.8533 41.8019 37.7948 41.1491 37.1419L36.8164 32.8092C36.1635 32.1564 35.105 32.1564 34.4521 32.8092Z" fill="#FF8A3D"/>
<path d="M57.5005 10.1679C56.5952 9.3783 55.424 8.96185 54.2235 9.00275C53.023 9.04365 51.8828 9.53884 51.0334 10.3882C50.184 11.2376 49.6889 12.3778 49.648 13.5783C49.6071 14.7788 50.0235 15.95 50.8131 16.8553L57.1159 23.1581C58.0211 23.9477 59.1924 24.3641 60.3929 24.3232C61.5934 24.2823 62.7336 23.7871 63.583 22.9378C64.4323 22.0884 64.9275 20.9482 64.9684 19.7477C65.0093 18.5472 64.5929 17.3759 63.8033 16.4707L57.5005 10.1679ZM39.8626 14.1887C38.9574 13.3991 37.7861 12.9826 36.5856 13.0235C35.3851 13.0644 34.2449 13.5596 33.3955 14.409C32.5462 15.2584 32.051 16.3986 32.0101 17.5991C31.9692 18.7996 32.3856 19.9708 33.1752 20.876L53.0701 40.7876C53.9753 41.5772 55.1465 41.9936 56.347 41.9528C57.5476 41.9119 58.6877 41.4167 59.5371 40.5673C60.3865 39.7179 60.8817 38.5777 60.9226 37.3772C60.9635 36.1767 60.547 35.0055 59.7574 34.1003L39.8626 14.1887Z" fill="#FF8A3D"/>
<path d="M91.712 63.896C88.64 63.896 85.8453 63.2133 83.328 61.848C80.8533 60.44 78.8693 58.4133 77.376 55.768C75.9253 53.08 75.2 49.816 75.2 45.976V35.224C75.2 29.464 76.8213 25.048 80.064 21.976C83.3067 18.8613 87.7013 17.304 93.248 17.304C98.752 17.304 102.997 18.776 105.984 21.72C109.013 24.6213 110.528 28.568 110.528 33.56V33.816H102.208V33.304C102.208 31.7253 101.867 30.296 101.184 29.016C100.544 27.736 99.5627 26.7333 98.24 26.008C96.9173 25.24 95.2533 24.856 93.248 24.856C90.2613 24.856 87.9147 25.7733 86.208 27.608C84.5013 29.4427 83.648 31.9387 83.648 35.096V46.104C83.648 49.2187 84.5013 51.736 86.208 53.656C87.9147 55.5333 90.304 56.472 93.376 56.472C96.448 56.472 98.688 55.6613 100.096 54.04C101.504 52.4187 102.208 50.3707 102.208 47.896V47.256H91.584V40.088H110.528V63H102.72V58.712H101.568C101.269 59.4373 100.779 60.2053 100.096 61.016C99.456 61.8267 98.4747 62.5093 97.152 63.064C95.8293 63.6187 94.016 63.896 91.712 63.896ZM125.511 75.8V68.76H142.791C143.986 68.76 144.583 68.12 144.583 66.84V58.84H143.431C143.09 59.5653 142.556 60.2907 141.831 61.016C141.106 61.7413 140.124 62.3387 138.887 62.808C137.65 63.2773 136.071 63.512 134.151 63.512C131.676 63.512 129.5 62.9573 127.623 61.848C125.788 60.696 124.359 59.1173 123.335 57.112C122.311 55.1067 121.799 52.8027 121.799 50.2V31.256H129.863V49.56C129.863 51.9493 130.439 53.7413 131.591 54.936C132.786 56.1307 134.471 56.728 136.647 56.728C139.122 56.728 141.042 55.9173 142.407 54.296C143.772 52.632 144.455 50.328 144.455 47.384V31.256H152.519V68.632C152.519 70.808 151.879 72.536 150.599 73.816C149.319 75.1387 147.612 75.8 145.479 75.8H125.511ZM164.693 63V31.256H172.629V34.712H173.781C174.335 33.6453 175.253 32.728 176.533 31.96C177.813 31.1493 179.498 30.744 181.589 30.744C183.85 30.744 185.663 31.192 187.029 32.088C188.394 32.9413 189.439 34.072 190.165 35.48H191.317C192.042 34.1147 193.066 32.984 194.389 32.088C195.711 31.192 197.589 30.744 200.021 30.744C201.983 30.744 203.754 31.1707 205.333 32.024C206.954 32.8347 208.234 34.0933 209.173 35.8C210.154 37.464 210.645 39.576 210.645 42.136V63H202.581V42.712C202.581 40.9627 202.133 39.6613 201.237 38.808C200.341 37.912 199.082 37.464 197.461 37.464C195.626 37.464 194.197 38.0613 193.173 39.256C192.191 40.408 191.701 42.072 191.701 44.248V63H183.637V42.712C183.637 40.9627 183.189 39.6613 182.293 38.808C181.397 37.912 180.138 37.464 178.517 37.464C176.682 37.464 175.253 38.0613 174.229 39.256C173.247 40.408 172.757 42.072 172.757 44.248V63H164.693ZM222.262 63V18.2H230.71V63H222.262ZM259.745 63.896C254.113 63.896 249.633 62.36 246.305 59.288C242.977 56.1733 241.313 51.736 241.313 45.976V35.224C241.313 29.464 242.977 25.048 246.305 21.976C249.633 18.8613 254.113 17.304 259.745 17.304C265.377 17.304 269.857 18.8613 273.185 21.976C276.513 25.048 278.177 29.464 278.177 35.224V45.976C278.177 51.736 276.513 56.1733 273.185 59.288C269.857 62.36 265.377 63.896 259.745 63.896ZM259.745 56.344C262.902 56.344 265.355 55.4267 267.105 53.592C268.854 51.7573 269.729 49.304 269.729 46.232V34.968C269.729 31.896 268.854 29.4427 267.105 27.608C265.355 25.7733 262.902 24.856 259.745 24.856C256.63 24.856 254.177 25.7733 252.385 27.608C250.635 29.4427 249.761 31.896 249.761 34.968V46.232C249.761 49.304 250.635 51.7573 252.385 53.592C254.177 55.4267 256.63 56.344 259.745 56.344ZM262.689 74.52C260.598 74.52 258.891 73.8587 257.569 72.536C256.289 71.256 255.649 69.528 255.649 67.352V63H263.841V66.072C263.841 67.352 264.438 67.992 265.633 67.992H269.409V74.52H262.689Z" fill="white"/>
</svg>
